<svg id="Layer_1" data-name="Layer 1" xmlns="http://www.w3.org/2000/svg" viewBox="0 0 403 492"><defs><style>.cls-1{fill:#f7b100;}.cls-2,.cls-3{fill:#4d4d4d;}.cls-3{font-size:100px;font-family:Augustus;}.cls-4{letter-spacing:-0.1em;}.cls-5{font-size:36px;font-family:GillSansMT, Gill Sans MT;}.cls-6{fill:#e6e6e6;stroke:#4d4d4d;stroke-miterlimit:10;stroke-width:5px;}</style></defs><ellipse class="cls-1" cx="193.5" cy="198.5" rx="187.5" ry="192.5"/><path class="cls-2" d="M506.5,149c48.42,0,94,19.36,128.23,54.52a186.06,186.06,0,0,1,39,59.29,191.9,191.9,0,0,1,0,145.38,186.06,186.06,0,0,1-39,59.29C600.46,502.64,554.92,522,506.5,522s-94-19.36-128.23-54.52a186.06,186.06,0,0,1-39-59.29,191.9,191.9,0,0,1,0-145.38,186.06,186.06,0,0,1,39-59.29C412.54,168.36,458.08,149,506.5,149m0-12C399.63,137,313,225.87,313,335.5S399.63,534,506.5,534,700,445.13,700,335.5,613.37,137,506.5,137Z" transform="translate(-313 -137)"/><text class="cls-3" transform="translate(88 310.8)"><tspan class="cls-4">U</tspan><tspan class="cls-5" x="78.2" y="0">nifriend</tspan></text><ellipse class="cls-6" cx="109" cy="103.5" rx="28" ry="41.5"/><ellipse class="cls-6" cx="188" cy="109.5" rx="28" ry="41.5"/><ellipse class="cls-2" cx="97" cy="116.5" rx="11" ry="21.5"/><ellipse class="cls-2" cx="177" cy="123.5" rx="11" ry="21.5"/></svg>